# Blender v2.79 (sub 0) OBJ File: ''
# www.blender.org
mtllib grass2.mtl
o grass01
v -1.000000 1.000000 0.000000
v 1.000000 0.000000 -0.000000
v 1.000000 1.000000 -0.000000
v -1.000000 0.000000 0.000000
v 0.711725 0.000000 0.705194
v -0.702489 1.000000 -0.709020
v -0.702489 0.000000 -0.709020
v 0.711725 1.000000 0.705194
vt 0.000000 1.000000
vt 1.000000 0.000000
vt 1.000000 1.000000
vt 0.000000 0.000000
vt 1.000000 0.000000
vt 0.000000 1.000000
vt 0.000000 0.000000
vt 1.000000 1.000000
vn 0.0000 0.0000 1.0000
vn -0.7071 0.0000 0.7071
usemtl ac3dmat1
s off
f 1/1/1 2/2/1 3/3/1
f 2/2/1 1/1/1 4/4/1
f 5/5/2 6/6/2 7/7/2
f 6/6/2 5/5/2 8/8/2
